<?xml version="1.0" encoding="utf-8"?>
<!-- Generator: Adobe Illustrator 23.0.4, SVG Export Plug-In . SVG Version: 6.00 Build 0)  -->
<svg version="1.1" id="Camada_1" xmlns="http://www.w3.org/2000/svg" xmlns:xlink="http://www.w3.org/1999/xlink" x="0px" y="0px"
	 viewBox="0 0 506 306" style="enable-background:new 0 0 506 306;" xml:space="preserve">
<style type="text/css">
	.st0{fill:#EDEEEE;}
	.st1{fill:#FFFFFF;}
	.st2{fill:#E700E6;}
	.st3{fill:#7EA033;}
	.st4{fill:#FF669E;}
	.st5{fill:#FAAD45;}
	.st6{fill:#08008B;}
	.st7{fill:#216BE7;}
	.st8{fill:#5C0E00;}
	.st9{fill:#4FFFFF;}
	.st10{fill:#00E75B;}
	.st11{fill:#D02C00;}
	.st12{fill:#ED1515;}
	.st13{fill:#FFC306;}
	.st14{fill:#2EA2FF;}
	.st15{fill:none;stroke:#000000;stroke-miterlimit:10;}
	.st16{fill:#545353;}
	.st17{fill:none;}
	.st18{fill:#E5EF16;}
</style>
<path class="st0" d="M506,162.5c0,0-107.8,134-247,134c-137,0-246-136-246-136s115.8-140.1,247-142C395,16.5,506,162.5,506,162.5z"
	/>
<g>
	<path class="st1" d="M299.7,63L299.7,63L299.7,63z"/>
	<polygon class="st1" points="366.4,136.5 366.3,136.5 366.3,136.5 	"/>
	<path class="st1" d="M190.3,247.1L190.3,247.1L190.3,247.1z"/>
	<polygon class="st2" points="179.5,137.4 225,140.5 193.2,113.2 177.1,111.1 	"/>
	<polygon class="st1" points="177.1,111.1 193.2,113.2 176.8,99.1 176.1,99.1 	"/>
	<path class="st1" d="M176,98.5L176,98.5L176,98.5z"/>
	<path class="st3" d="M320,136.5l34.4,86.8c10.2-16.5,16.1-36,16.1-56.8c0-10.3-1.4-20.4-4.2-30l-28.3,44L320,136.5z"/>
	<path class="st4" d="M366.3,136.5c-9.5-33.6-34.5-61.2-66.7-73.5l39.6,43.6L366.3,136.5z"/>
	<path class="st5" d="M294,75.5l5.7-12.5c-11.7-4.5-24.4-7-37.7-7c-9.8,0-19.2,1.3-28.2,3.7L246.5,82L294,75.5z"/>
	<path class="st6" d="M160.6,203.4L183,176l-3.5-38.6l-13.5-0.9l13.5,0.9l-2.4-26.3l-8.6-1.1l8.6,1.1L176,99l-0.5-0.1l0.5-0.5l0,0
		l0,0l23-22.3c-27.5,19.7-45.5,51.9-45.5,88.3c0,32.5,14.3,62.2,36.8,82.6l8.7-46.6L160.6,203.4z"/>
	<path class="st7" d="M193.2,113.2l36.3,4.8L193.2,113.2l31.8,27.3l-45.5-3.1L183,176l-22.4,27.4l38.4-2.9l-8.7,46.6l0,0l96.6,25
		L240,238.5l54-57v53l42.7,10.7c6.8-6.5,12.8-13.8,17.7-21.9L320,136.5l18,44l28.3-44l0,0l-27.1-29.9L299.7,63l0,0L294,75.5l-32,47
		l-21.6-15.9l-63.6-7.5 M183,200.5l4-55l38,48L183,200.5z"/>
	<path class="st8" d="M294,181.5l-54,57l46.9,33.6l-96.6-25c19.1,17.3,44.2,27.9,71.6,27.9c28.9,0,55.2-11.3,74.7-29.8L294,234.5
		V181.5z"/>
	<path class="st4" d="M294,75.5L246.5,82l-12.7-22.2c-12.7,3.4-24.4,9-34.8,16.4l14,10.3L294,75.5z"/>
	<polygon class="st9" points="240.4,106.6 240.4,106.6 262,122.5 294,75.5 213,86.5 	"/>
	<polygon class="st10" points="183,200.5 225,193.5 187,145.5 	"/>
	<path class="st1" d="M199,76.2L199,76.2L199,76.2z"/>
	<polygon class="st1" points="176,98.5 176.1,99.1 176.8,99.1 	"/>
	<polygon class="st11" points="176.8,99.1 240.4,106.6 213,86.5 213,86.5 199,76.2 199,76.2 176,98.5 	"/>
	<polygon class="st1" points="175.5,99 176.1,99.1 176,98.5 	"/>
	<polygon class="st1" points="213,86.5 213,86.5 240.4,106.6 240.4,106.6 	"/>
</g>
<polygon class="st12" points="278,146 337,107 268.5,113 "/>
<polyline class="st13" points="366,137 337,141 337,107 294,182 333,169.3 320,137 "/>
<path d="M308.6,162.9c0,27.1-22,49.1-49.1,49.1s-49.1-22.8-49.1-49.9s22-49.1,49.1-49.1S308.6,135.8,308.6,162.9z"/>
<path class="st14" d="M281.7,216.6c-1.2,0.4-2.3,0.9-3.5,1.3C279.4,217.5,280.6,217.1,281.7,216.6z"/>
<g>
	<line class="st15" x1="1027.5" y1="458.5" x2="1027.5" y2="459.5"/>
</g>
<line class="st15" x1="1726.5" y1="407.5" x2="1726.5" y2="408.5"/>
<path class="st16" d="M225,56"/>
<line class="st17" x1="246" y1="52" x2="246" y2="53"/>
<line class="st17" x1="337" y1="113" x2="337" y2="113"/>
<polyline class="st1" points="337,180 294,197.8 354,223 "/>
<polygon class="st18" points="240,238 199,200.5 190,247 287,272 "/>
</svg>
